<svg xmlns="http://www.w3.org/2000/svg" width="500" height="500" version="1.0" viewBox="0 0 375 375"><path fill="#002a42" d="M205.977 265.273c-8.223-3.375-28.832-10.738-52.082-10.738-12.29 0-23.653 2.047-33.844 6.098-1.012 5.219-2.496 14.957-1.957 25.156.43 8.23 2.07 15.11 4.875 20.445 3.203 6.098 7.883 10.106 14.304 12.243 9.297 3.101 19.836 4.808 29.68 4.808 9.527 0 26.668-1.703 34.473-13.094 4.37-6.382 6.465-16.664 6.047-29.746-.196-6.164-.922-11.644-1.496-15.172"/><path fill="#002a42" d="M346.492 249.746c-1.176.414-2.484.707-3.691.598-.848-.074-1.79-.2-2.774-.352-3.863-24.844-13.273-40.758-13.273-40.758 8.844 32.637-7.3 56.883-41.762 69.22 15.211-11.317 20.059-25.68 19.895-39.63-2.051 9.492-6.094 18.332-13.399 24.438 0 0 17.867-20.664-5.086-75.645 0 0-102.148 75.598-159.816 33.735 0 0 32.066 15.898 65.223-19.555-18.348 8.644-45.489 14.242-77.25 12.062-6.426 11.649-7.23 26.184-7.036 34.711-2.64.578-5.418 1.094-7.613 1.29a6.409 6.409 0 0 1-.867.011c-2.973-14.894-4.61-28.613-5.504-38.535-18.094-3.094-37.273-8.746-56.887-17.703 11.137-.824 44.664 8.207 65.004-20.883 0 0-29.035 12.531-52.832-10.152 27.887 7.351 45.774-21.91 68.559-30.243C82.34 135.22 70.023 106 70.023 106c11.094 13.984 44.73 12.316 71.473-6.66 6.246-4.438 19.992-12.762 39.652-18.035-25.933-2.735-50.71 1.433-50.71 1.433 59.492-27.98 100.855-21.902 128.582-6.195.101-.035.199-.07.304-.102-19.23-23.441-56.406-27.718-56.406-27.718 40.824-2.184 98.633 6.656 115.504 72.57 44.078 11.344 39.348 75.824 28.07 128.453Zm2.516 18.281s-6.98.871-12.996 4.114c1.293 18.539-1.36 44.828-24.84 52.652-23.836 7.95-59.879 8.844-73.844-11.543-6.305-9.2-7.77-22.184-7.566-33.305.082-4.695-3.711-8.543-8.407-8.543-4.695 0-8.488 3.848-8.406 8.543.203 11.121-1.262 24.106-7.562 33.305-13.969 20.387-50.012 19.492-73.848 11.543-23.476-7.824-26.129-34.113-24.84-52.652-6.011-3.243-12.996-4.114-12.996-4.114l-1.2-14.812s4.09 2.562 7.407 2.289c2.715-.227 6.328-.922 9.461-1.61.164-.703.262-1.085.262-1.085 46.93-21.618 100.816 4.746 100.816 4.746a7.149 7.149 0 0 0 6.969 5.574h7.875a7.146 7.146 0 0 0 6.969-5.574s27.808-13.606 60.87-13.254a51.828 51.828 0 0 1-.195 1.984c-.406 3.367-1.09 6.11-1.828 8.27-.757-.012-1.523-.02-2.289-.02-23.25 0-43.86 7.363-52.086 10.738-.574 3.528-1.297 9.008-1.496 15.172-.414 13.082 1.68 23.364 6.047 29.746 7.805 11.391 24.95 13.094 34.473 13.094 9.844 0 20.387-1.707 29.68-4.808 6.421-2.137 11.101-6.145 14.304-12.243 2.805-5.336 4.445-12.214 4.88-20.445.534-10.2-.946-19.937-1.962-25.156-.367-.145-.742-.278-1.113-.422a54.642 54.642 0 0 0 3.355-4.371 50.694 50.694 0 0 0 3.133-5.156 83.782 83.782 0 0 1 5.043 2.125s.102.382.262 1.086c3.133.687 6.746 1.382 9.46 1.609 3.321.273 7.407-2.29 7.407-2.29ZM206.25.004C92.344.004.004 92.344.004 206.25s92.34 206.246 206.246 206.246 206.246-92.34 206.246-206.246S320.156.004 206.25.004"/></svg>