<svg xmlns="http://www.w3.org/2000/svg" width="273" height="75" version="1.0" viewBox="0 0 204.75 56.25"><defs><clipPath id="a"><path d="M1.227.203H203.28V55.04H1.227Zm0 0"/></clipPath><clipPath id="b"><path d="M6.637 5.387h94.754V50.19H6.637Zm0 0"/></clipPath></defs><g clip-path="url(#a)"><path fill="none" stroke="#002a42" stroke-width="6" d="M.001.001h272.993v74.453H0V0" transform="matrix(.74103 0 0 .73652 1.226 .202)"/></g><g clip-path="url(#b)"><path fill="#002a42" d="M6.637 5.387h94.754V50.19H6.637Zm0 0"/></g><path fill="#fff" d="M20.823 34.77h5.207c4.62 0 7.718-3.075 7.718-7.528 0-4.45-3.097-7.524-7.718-7.524h-5.207Zm1.894-1.805V21.523h3.227c3.504 0 5.867 2.301 5.867 5.719 0 3.422-2.344 5.723-5.781 5.723Zm22.937 2.085c4.579 0 7.805-3.226 7.805-7.808 0-4.578-3.226-7.805-7.805-7.805-4.582 0-7.785 3.227-7.785 7.805 0 4.582 3.203 7.809 7.785 7.809Zm-5.847-7.808c0-3.504 2.386-5.91 5.847-5.91 3.461 0 5.848 2.406 5.848 5.91 0 3.508-2.387 5.914-5.848 5.914-3.46 0-5.847-2.406-5.847-5.914Zm25.366 7.808c3.656 0 6.62-2.214 7.523-5.57H70.7c-.777 2.258-2.906 3.676-5.465 3.676-3.351 0-5.738-2.43-5.738-5.914 0-3.48 2.387-5.91 5.738-5.91 2.496 0 4.54 1.332 5.313 3.504h2.02c-.99-3.313-3.848-5.399-7.395-5.399-4.43 0-7.614 3.27-7.614 7.805 0 4.539 3.184 7.809 7.614 7.809Zm17.517 0c3.29 0 5.419-1.613 5.419-4.238 0-2.215-1.485-3.547-5.332-4.492-2.926-.71-3.891-1.484-3.891-2.73 0-1.442 1.289-2.344 3.437-2.344 2.215 0 3.594 1.117 3.637 2.922h1.871c-.023-2.922-2.129-4.73-5.508-4.73-3.289 0-5.375 1.613-5.375 4.152 0 2.32 1.657 3.609 5.356 4.492 2.71.644 3.848 1.398 3.848 2.797 0 1.48-1.332 2.363-3.461 2.363-2.344 0-3.977-1.16-4.02-3.094h-1.894c.023 2.945 2.324 4.903 5.914 4.903Zm0 0"/><path d="M128.913 35.21c5.18 0 8.43-3.766 7.953-9.055h-8.707v3.054h4.148c-.43 1.27-1.633 2.13-3.351 2.13-2.41 0-3.805-1.7-3.805-3.981 0-2.364 1.523-3.977 3.762-3.977 1.332 0 2.472.582 3.05 1.527h4.625c-.882-3.289-3.933-5.398-7.742-5.398-4.73 0-7.976 3.227-7.976 7.848 0 4.644 3.27 7.851 8.043 7.851Zm10.274-.325h10.559v-3.547h-6.258v-2.324h5.442v-3.48h-5.442v-2.196h6.02v-3.504h-10.32Zm13.116 0h10.558v-3.547h-6.258v-2.324h5.442v-3.48h-5.442v-2.196h6.02v-3.504h-10.32Zm13.115 0h4.344v-5.7h1.894l2.879 5.7h5.031l-3.957-7.312c.453-.536.864-1.247 1.207-2.125l2.235-5.614h-4.707l-1.356 3.762c-.453 1.312-.945 1.637-2.496 1.637h-.73v-5.399h-4.344Zm0 0"/></svg>